<?xml version="1.0" encoding="UTF-8" standalone="no"?>
<svg
   xmlns:dc="http://purl.org/dc/elements/1.1/"
   xmlns:cc="http://creativecommons.org/ns#"
   xmlns:rdf="http://www.w3.org/1999/02/22-rdf-syntax-ns#"
   xmlns:svg="http://www.w3.org/2000/svg"
   xmlns="http://www.w3.org/2000/svg"
   version="1.1"
   width="243"
   height="26.751448"
   viewBox="0 0 243 26.751447"
   id="svg3079"
   xml:space="preserve"><metadata
   id="metadata3136"><rdf:RDF><cc:Work
       rdf:about=""><dc:format>image/svg+xml</dc:format><dc:type
         rdf:resource="http://purl.org/dc/dcmitype/StillImage" /><dc:title></dc:title></cc:Work></rdf:RDF></metadata><defs
   id="defs3134" />
<g
   transform="matrix(0.57730938,0,0,0.57730938,9.0406006e-5,-6.6592576e-7)"
   id="Layer_1">
	<g
   id="g3082">
		<path
   d="m 418.892,19.551 c -0.884,0.896 -1.953,1.345 -3.202,1.345 -1.249,0 -2.316,-0.448 -3.2,-1.345 -0.885,-0.895 -1.328,-1.97 -1.328,-3.221 0,-1.25 0.443,-2.325 1.328,-3.221 0.884,-0.896 1.951,-1.344 3.2,-1.344 1.249,0 2.318,0.448 3.202,1.344 0.885,0.896 1.326,1.971 1.326,3.221 0,1.251 -0.442,2.326 -1.326,3.221 z m 0.494,-6.917 c -1.021,-1.022 -2.253,-1.533 -3.696,-1.533 -1.441,0 -2.675,0.51 -3.694,1.533 -1.021,1.021 -1.534,2.253 -1.534,3.696 0,1.443 0.513,2.674 1.534,3.697 1.02,1.02 2.253,1.531 3.694,1.531 1.443,0 2.675,-0.512 3.696,-1.531 1.021,-1.022 1.532,-2.254 1.532,-3.697 0,-1.443 -0.512,-2.674 -1.532,-3.696 z m -2.647,3.936 c 0.4,-0.153 0.716,-0.36 0.946,-0.619 0.228,-0.261 0.343,-0.586 0.343,-0.977 0,-0.293 -0.059,-0.538 -0.18,-0.734 -0.119,-0.195 -0.305,-0.361 -0.558,-0.499 -0.24,-0.125 -0.479,-0.203 -0.727,-0.235 -0.247,-0.033 -0.56,-0.049 -0.937,-0.049 h -1.889 v 5.523 h 0.992 v -2.135 h 0.979 l 1.99,2.135 h 1.359 l -2.318,-2.41 z m 0.128,-1.081 c -0.052,0.12 -0.14,0.231 -0.266,0.332 -0.116,0.092 -0.268,0.157 -0.448,0.196 -0.182,0.038 -0.399,0.055 -0.648,0.055 h -0.773 v -1.859 h 0.905 c 0.214,0 0.394,0.011 0.534,0.031 0.143,0.02 0.274,0.064 0.399,0.132 0.135,0.073 0.229,0.164 0.286,0.278 0.058,0.113 0.085,0.24 0.085,0.385 0,0.179 -0.024,0.329 -0.074,0.45 z"
   id="path3084"
   style="fill:#00a777" />
		<g
   id="g3086">
			<g
   id="g3088">
				<g
   id="g3090">
					<path
   d="m 44.269,45.269 c -1.41,1.409 -3.74,1.439 -5.174,0 l -8.453,-8.453 0.054,5.867 c 0.057,2.297 -1.555,3.625 -3.567,3.625 -2.069,0 -3.679,-1.615 -3.679,-3.625 v -7.309 c 0,-1.606 0.98,-2.891 2.293,-3.402 2.43,-0.947 4.312,-2.832 5.229,-5.229 0.499,-1.297 1.797,-2.295 3.405,-2.295 h 7.308 c 2.011,0 3.624,1.61 3.624,3.679 0,2.015 -1.326,3.626 -3.624,3.568 l -5.868,-0.056 8.453,8.452 c 1.439,1.436 1.41,3.766 -0.001,5.178 z"
   id="path3092"
   style="fill:#00a777" />
					<path
   d="m 44.271,2.07 c 1.409,1.411 1.438,3.741 0,5.177 l -8.454,8.451 5.867,-0.054 c 2.298,-0.058 3.624,1.555 3.624,3.568 0,2.069 -1.613,3.678 -3.624,3.678 l -7.308,0.003 C 32.768,22.89 31.484,21.91 30.971,20.597 30.025,18.166 28.141,16.284 25.745,15.367 24.447,14.869 23.449,13.572 23.449,11.964 V 4.655 c 0,-2.009 1.609,-3.624 3.68,-3.624 2.013,0 3.623,1.328 3.566,3.624 l -0.054,5.869 8.453,-8.454 c 1.434,-1.441 3.764,-1.411 5.177,0 z"
   id="path3094"
   style="fill:#00a777" />
					<path
   d="m 1.069,2.07 c 1.409,-1.411 3.74,-1.441 5.176,0 l 8.452,8.454 -0.056,-5.869 c -0.056,-2.297 1.558,-3.625 3.57,-3.625 2.068,0 3.679,1.616 3.679,3.625 v 7.309 c 0,1.607 -0.982,2.891 -2.296,3.403 -2.428,0.948 -4.312,2.833 -5.229,5.228 -0.496,1.299 -1.797,2.295 -3.403,2.295 H 3.654 c -2.01,0 -3.624,-1.609 -3.624,-3.678 0,-2.015 1.328,-3.625 3.624,-3.569 L 9.524,15.698 1.069,7.247 C -0.37,5.811 -0.343,3.479 1.069,2.07 z"
   id="path3096"
   style="fill:#00a777" />
					<path
   d="m 1.069,45.269 c -1.41,-1.41 -1.441,-3.74 0,-5.176 L 9.521,31.642 3.654,31.696 C 1.358,31.754 0.03,30.142 0.03,28.129 c 0,-2.069 1.614,-3.678 3.624,-3.678 h 7.309 c 1.606,0 2.893,0.98 3.403,2.293 0.948,2.43 2.833,4.312 5.229,5.23 1.298,0.496 2.294,1.795 2.294,3.4 v 7.31 c 0.002,2.009 -1.608,3.624 -3.68,3.624 -2.011,0 -3.623,-1.328 -3.567,-3.624 l 0.056,-5.868 -8.452,8.453 c -1.436,1.439 -3.767,1.412 -5.177,0 z"
   id="path3098"
   style="fill:#00a777" />
				</g>
			</g>
			<g
   id="g3100">
				<g
   id="g3102">
					<g
   id="g3104">
						<path
   d="m 76.072,45.275 c -14.46,0 -19.116,-9.617 -19.116,-19.909 0,-13.111 6.862,-22.302 20.709,-22.302 2.938,0 6.064,0.369 8.761,1.104 l -0.857,7.228 c -2.695,-0.795 -5.514,-1.225 -8.333,-1.225 -7.72,0 -11.52,5.821 -11.52,13.845 0,9.007 3.74,14.031 12.069,14.031 2.515,0 5.884,-0.734 8.03,-1.715 l 0.915,7.105 c -3.061,1.104 -6.797,1.838 -10.658,1.838 z"
   id="path3106"
   style="fill:#00a777" />
						<path
   d="m 97.455,11.739 c -2.589,0 -4.648,-2.06 -4.648,-4.589 0,-2.473 2.06,-4.532 4.648,-4.532 2.59,0 4.711,2 4.711,4.532 0,2.529 -2.121,4.589 -4.711,4.589 z M 93.533,44.724 V 14.277 h 7.84 v 30.447 h -7.84 z"
   id="path3108"
   style="fill:#00a777" />
						<path
   d="m 120.96,45.339 c -6.741,0 -8.825,-2.455 -8.825,-9.559 V 20.34 h -5.267 v -6.064 h 5.208 V 4.902 l 7.841,-2.083 v 11.458 h 7.415 v 6.064 h -7.415 v 13.358 c 0,3.918 0.922,5.021 3.616,5.021 1.284,0 2.693,-0.184 3.799,-0.49 v 6.311 c -1.96,0.492 -4.229,0.798 -6.372,0.798 z"
   id="path3110"
   style="fill:#00a777" />
						<path
   d="m 138.523,11.739 c -2.591,0 -4.65,-2.06 -4.65,-4.589 0,-2.473 2.06,-4.532 4.65,-4.532 2.592,0 4.71,2 4.71,4.532 0,2.529 -2.118,4.589 -4.71,4.589 z m -3.92,32.985 V 14.277 h 7.842 v 30.447 h -7.842 z"
   id="path3112"
   style="fill:#00a777" />
						<path
   d="M 149.426,44.724 V 39.15 l 12.255,-18.014 c -1.164,0.064 -3.554,0.125 -6.495,0.125 h -5.391 v -6.984 h 21.32 v 5.574 l -12.008,17.766 c 1.286,-0.061 4.655,-0.061 6.923,-0.061 h 5.33 v 7.168 h -21.934 z"
   id="path3114"
   style="fill:#00a777" />
						<path
   d="M 203.159,30.755 H 184.29 c -0.063,5.699 2.755,8.455 8.389,8.455 3.008,0 6.252,-0.674 8.887,-1.898 l 0.734,6.064 c -3.247,1.287 -7.105,1.963 -10.904,1.963 -9.681,0 -15.072,-4.842 -15.072,-15.564 0,-9.311 5.146,-16.174 14.275,-16.174 8.883,0 12.808,6.068 12.808,13.602 -0.001,1.043 -0.065,2.265 -0.248,3.552 z M 190.353,19.361 c -3.246,0 -5.514,2.388 -5.944,6.066 h 11.215 c 0.12,-3.799 -1.962,-6.066 -5.271,-6.066 z"
   id="path3116"
   style="fill:#00a777" />
						<path
   d="M 228.646,44.724 V 25.241 c 0,-3.184 -0.86,-5.081 -3.738,-5.081 -3.981,0 -7.104,4.531 -7.104,9.861 v 14.703 h -7.845 V 14.277 h 7.413 c 0,1.408 -0.12,3.797 -0.429,5.392 l 0.056,0.061 c 1.846,-3.616 5.397,-6.128 10.354,-6.128 6.867,0 9.073,4.412 9.073,9.743 v 21.38 h -7.78 z"
   id="path3118"
   style="fill:#00a777" />
						<path
   d="m 250.211,45.339 c -2.204,0 -4.408,-0.246 -6.366,-0.553 l 0.179,-6.434 c 1.899,0.488 4.228,0.92 6.556,0.92 3,0 4.966,-1.227 4.966,-3.246 0,-5.395 -12.317,-2.328 -12.317,-12.683 0,-5.331 4.353,-9.743 12.927,-9.743 1.776,0 3.74,0.244 5.572,0.551 l -0.244,6.189 c -1.714,-0.49 -3.737,-0.796 -5.634,-0.796 -3.064,0 -4.534,1.226 -4.534,3.126 0,4.96 12.499,2.756 12.499,12.619 -0.002,6.005 -5.271,10.05 -13.604,10.05 z"
   id="path3120"
   style="fill:#00a777" />
					</g>
					<g
   id="g3122">
						<path
   d="m 292.604,44.846 c -2.509,0 -6.859,-0.122 -12.067,-0.122 V 3.432 c 3.495,-0.186 8.884,-0.307 13.97,-0.307 8.946,0 13.907,3.614 13.907,10.23 0,4.106 -2.635,7.722 -6.554,9.252 v 0.124 c 4.899,1.039 7.353,5.084 7.353,9.25 -0.001,6.003 -4.109,12.865 -16.609,12.865 z M 293.16,9.558 c -1.655,0 -3.248,0.061 -4.659,0.123 v 10.783 c 0.98,0.061 1.96,0.061 3.25,0.061 5.45,0 8.271,-2.207 8.271,-5.881 -10e-4,-3.065 -1.841,-5.086 -6.862,-5.086 z m -1.168,16.909 c -0.609,0 -2.634,0 -3.491,0.062 v 11.578 c 0.98,0.123 2.51,0.246 4.351,0.246 5.207,0 7.845,-2.451 7.845,-6.188 -10e-4,-4.044 -3.496,-5.698 -8.705,-5.698 z"
   id="path3124"
   style="fill:#00a777" />
						<path
   d="m 331.692,44.724 c 0,-1.777 0.063,-3.553 0.312,-5.146 l -0.064,-0.061 c -1.473,3.43 -5.208,5.822 -9.741,5.822 -5.514,0 -8.698,-3.126 -8.698,-8.027 0,-7.291 7.226,-11.152 17.582,-11.152 v -1.652 c 0,-3.186 -1.531,-4.838 -5.943,-4.838 -2.758,0 -6.434,0.916 -9.003,2.388 l -0.678,-6.556 c 3.063,-1.103 6.984,-1.9 10.906,-1.9 9.803,0 12.562,3.983 12.562,10.6 v 12.682 c 0,2.451 0.056,5.331 0.182,7.842 h -7.417 z m -0.61,-13.478 c -8.271,0 -10.11,2.39 -10.11,4.84 0,1.961 1.35,3.248 3.616,3.248 3.861,0 6.494,-3.676 6.494,-7.352 v -0.736 z"
   id="path3126"
   style="fill:#00a777" />
						<path
   d="M 365.575,44.724 V 25.241 c 0,-3.184 -0.86,-5.081 -3.74,-5.081 -3.98,0 -7.104,4.531 -7.104,9.861 v 14.703 h -7.845 V 14.277 h 7.416 c 0,1.408 -0.12,3.797 -0.429,5.392 l 0.062,0.061 c 1.838,-3.616 5.391,-6.128 10.351,-6.128 6.863,0 9.07,4.412 9.07,9.743 v 21.38 h -7.781 z"
   id="path3128"
   style="fill:#00a777" />
						<path
   d="m 398.536,44.724 -9.438,-15.07 v 15.07 h -7.842 V 0 h 7.842 v 26.958 l 8.888,-12.682 h 9.557 l -10.663,13.907 11.46,16.541 h -9.804 z"
   id="path3130"
   style="fill:#00a777" />
					</g>
				</g>
			</g>
		</g>
	</g>
</g>
</svg>